# Blender 4.0.1
# www.blender.org
mtllib untitled2.mtl
o Circle
v -0.330236 0.363081 0.000000
v -0.408702 0.273086 0.000000
v -0.454126 0.188105 0.000000
v -0.491496 0.048408 0.000000
v -0.474577 -0.138060 -0.000000
v -0.408702 -0.273086 -0.000000
v 0.291331 -0.396073 -0.000000
v 0.408702 -0.273086 -0.000000
v 0.472608 -0.143364 -0.000000
v 0.491496 0.048408 0.000000
v 0.454126 0.188105 0.000000
v 0.408702 0.273086 0.000000
v 0.000000 0.293043 0.000000
v -0.085469 0.281755 0.000000
v -0.186787 0.227600 0.000000
v -0.243657 0.162806 0.000000
v -0.281755 0.085470 0.000000
v -0.293043 0.000000 0.000000
v -0.281755 -0.085469 -0.000000
v -0.243657 -0.162806 -0.000000
v -0.186787 -0.227600 -0.000000
v -0.085469 -0.281755 -0.000000
v 0.000000 -0.293043 -0.000000
v 0.085469 -0.281755 -0.000000
v 0.186787 -0.227600 -0.000000
v 0.243657 -0.162806 -0.000000
v 0.281755 -0.085469 -0.000000
v 0.293043 0.000000 0.000000
v 0.281755 0.085470 0.000000
v 0.243657 0.162806 0.000000
v 0.186787 0.227600 0.000000
v 0.085470 0.281755 0.000000
v -0.079225 7.239268 0.000000
v 0.140887 5.177778 0.000000
v 0.079749 7.258664 0.000000
v -0.350704 -1.806808 -0.000000
v 0.000000 -1.841349 -0.000000
v 0.350704 -1.806808 -0.000000
v -0.216132 0.480430 0.000000
v 0.333375 0.360274 0.000000
v 0.216092 0.484050 0.000000
v -0.291331 -0.396073 -0.000000
v -0.188105 -0.565859 -0.000000
v 0.188105 -0.565859 -0.000000
v -0.188105 -0.850473 -0.000000
v -0.258302 -1.030389 -0.000000
v 0.258302 -1.030390 -0.000000
v 0.188105 -0.850473 -0.000000
v -0.373652 -1.155707 -0.000000
v -0.450884 -1.328160 -0.000000
v 0.450884 -1.328160 -0.000000
v 0.373652 -1.155707 -0.000000
v -0.479832 -1.622235 -0.000000
v -0.421647 -1.753923 -0.000000
v 0.479832 -1.622235 -0.000000
v 0.421647 -1.753923 -0.000000
v -0.026657 7.574943 0.000000
v 0.024104 7.575397 0.000000
v -0.001578 7.608779 0.000000
vn -0.0000 -0.0000 -1.0000
vt 0.000000 0.000000
s 0
f 9/1/1 28/1/1 10/1/1
f 5/1/1 20/1/1 6/1/1
f 10/1/1 28/1/1 29/1/1
f 6/1/1 21/1/1 42/1/1
f 10/1/1 29/1/1 11/1/1
f 12/1/1 29/1/1 30/1/1
f 12/1/1 31/1/1 40/1/1
f 51/1/1 38/1/1 37/1/1
f 2/1/1 15/1/1 16/1/1
f 7/1/1 24/1/1 25/1/1
f 2/1/1 17/1/1 3/1/1
f 3/1/1 17/1/1 4/1/1
f 8/1/1 25/1/1 26/1/1
f 9/1/1 26/1/1 27/1/1
f 5/1/1 18/1/1 19/1/1
f 33/1/1 35/1/1 34/1/1
f 51/1/1 37/1/1 47/1/1
f 9/1/1 27/1/1 28/1/1
f 5/1/1 19/1/1 20/1/1
f 6/1/1 20/1/1 21/1/1
f 12/1/1 11/1/1 29/1/1
f 42/1/1 21/1/1 22/1/1
f 12/1/1 30/1/1 31/1/1
f 40/1/1 1/1/1 39/1/1
f 2/1/1 1/1/1 15/1/1
f 34/1/1 39/1/1 33/1/1
f 2/1/1 16/1/1 17/1/1
f 8/1/1 7/1/1 25/1/1
f 4/1/1 17/1/1 18/1/1
f 9/1/1 8/1/1 26/1/1
f 5/1/1 4/1/1 18/1/1
f 40/1/1 31/1/1 32/1/1
f 44/1/1 24/1/1 7/1/1
f 49/1/1 48/1/1 47/1/1
f 55/1/1 56/1/1 38/1/1
f 36/1/1 54/1/1 53/1/1
f 1/1/1 14/1/1 15/1/1
f 1/1/1 32/1/1 13/1/1
f 43/1/1 48/1/1 45/1/1
f 52/1/1 51/1/1 47/1/1
f 46/1/1 45/1/1 48/1/1
f 49/1/1 46/1/1 48/1/1
f 39/1/1 34/1/1 41/1/1
f 41/1/1 40/1/1 39/1/1
f 23/1/1 24/1/1 44/1/1
f 1/1/1 13/1/1 14/1/1
f 50/1/1 37/1/1 36/1/1
f 48/1/1 43/1/1 44/1/1
f 43/1/1 23/1/1 44/1/1
f 1/1/1 40/1/1 32/1/1
f 43/1/1 42/1/1 23/1/1
f 42/1/1 22/1/1 23/1/1
f 37/1/1 50/1/1 47/1/1
f 50/1/1 49/1/1 47/1/1
f 38/1/1 51/1/1 55/1/1
f 50/1/1 36/1/1 53/1/1
f 58/1/1 35/1/1 57/1/1
f 35/1/1 33/1/1 57/1/1
f 57/1/1 59/1/1 58/1/1
